<?xml version="1.0" encoding="utf-8"?>
<!-- Generator: Adobe Illustrator 23.0.1, SVG Export Plug-In . SVG Version: 6.00 Build 0)  -->
<svg version="1.1" id="Layer_1" xmlns="http://www.w3.org/2000/svg" xmlns:xlink="http://www.w3.org/1999/xlink" x="0px" y="0px"
	 width="1400px" height="1400px" viewBox="0 0 1400 1400" enable-background="new 0 0 1400 1400" xml:space="preserve">
<rect fill="#FF9300" width="1400" height="1400"/>
<g>
	<g>
		<g>
			<rect x="579.3" y="809.2" fill="#EFA04B" width="228.2" height="220.3"/>
		</g>
		<g>
			<path fill="#EFA04B" d="M843.1,689.7c0,0,8.5-28.2,32.5-27.8c24.1,0.3,36,75.5-32.5,83.9H556.9c-68.5-8.4-56.6-83.5-32.5-83.9
				c24.1-0.3,32.5,27.8,32.5,27.8"/>
		</g>
		<polygon fill="#460700" points="555.1,788.2 555.1,849.6 838.7,849.6 838.7,763.4 		"/>
		<g>
			<path fill="#FFBD6F" d="M556.9,651.8v101.8c0,79,64.1,143.1,143.1,143.1h0c79,0,143.1-64.1,143.1-143.1V651.8
				C745.7,622.8,650.3,622.8,556.9,651.8z"/>
		</g>
		<g>
			<path fill="#460700" d="M700,904.1c-83,0-150.5-67.5-150.5-150.5V651.8c0-4.1,3.3-7.4,7.4-7.4s7.4,3.3,7.4,7.4v101.8
				c0,74.8,60.9,135.7,135.7,135.7c74.8,0,135.7-60.9,135.7-135.7V657c0-4.1,3.3-7.4,7.4-7.4c4.1,0,7.4,3.3,7.4,7.4v96.6
				C850.5,836.6,783,904.1,700,904.1z"/>
		</g>
		<g>
			<path fill="#460700" d="M556.9,753.2c-0.3,0-0.6,0-0.9-0.1c-20-2.4-35.9-10.6-46.1-23.7c-8.4-10.8-12.6-24.6-11.8-38.8
				c1.1-20.8,12.1-36,26.1-36.2c29.3-0.4,39.3,31.8,39.8,33.1c1.2,3.9-1,8.1-5,9.2c-3.9,1.2-8-1-9.2-4.9l0,0
				c-0.3-0.9-7.2-22.6-25-22.6c-0.1,0-0.2,0-0.3,0c-4.9,0.1-10.8,9.6-11.5,22.2c-1.1,19.9,10.1,42.7,44.9,46.9
				c4.1,0.5,7,4.2,6.5,8.3C563.8,750.4,560.6,753.2,556.9,753.2z"/>
		</g>
		<g>
			<path fill="#460700" d="M843.1,753.2c-3.7,0-6.9-2.8-7.4-6.5c-0.5-4.1,2.4-7.8,6.5-8.3c34.7-4.2,45.9-27,44.9-46.9
				c-0.7-12.6-6.6-22.1-11.5-22.2c-0.1,0-0.2,0-0.3,0c-18,0-25,22.3-25,22.6c-1.2,3.9-5.3,6.2-9.2,5c-3.9-1.2-6.1-5.3-5-9.2
				c0.4-1.4,10.3-33.1,39.2-33.1c0.2,0,0.4,0,0.6,0c14,0.2,25,15.4,26.1,36.2c0.8,14.2-3.4,28-11.8,38.8
				c-10.1,13-26.1,21.2-46.1,23.7C843.7,753.1,843.4,753.2,843.1,753.2z"/>
		</g>
		<g>
			<path fill="#FCE8CA" d="M523.2,661.9c113.6-38.2,229.4-36.8,347.4,0v-74.3c-115.8-46.9-231.6-46.9-347.4,0V661.9z"/>
		</g>
		<g>
			<path fill="#FCE8CA" d="M523.2,587.6c0,0-40.7-92.4-40.7-151.1c0-58.7,76.8-106.2,150.6-112.9s75.3,12,109.2,19.6
				c33.9,7.5,114.2-2.3,128.3,18.8c14.1,21.1,15.6,36.9,46.4,61.7c30.9,24.8,34.6,95.6,10.5,135.5c-10.4,17.3-36.9,3-57,28.4"/>
		</g>
		<g>
			<path fill="#FCE8CA" d="M654.8,949.7c0,0-4.8-14.4-31.9-34.4s-35.2-73.1-35.2-73.1s-206.4,49.6-206.4,235.7h637.5
				c0-186.1-206.4-235.7-206.4-235.7s-8.1,53.2-35.2,73.1c-27.1,20-31.9,34.4-31.9,34.4"/>
		</g>
		<g>
			<path fill="#460700" d="M870.6,669.1c-0.7,0-1.5-0.1-2.2-0.3c-118.1-36.8-233.5-36.8-342.9,0c-2.2,0.7-4.7,0.4-6.6-1
				c-1.9-1.4-3-3.6-3-5.9v-74.3c0-3,1.8-5.6,4.6-6.8c58.5-23.7,117.9-35.7,176.4-35.7c58.6,0,117.9,12,176.4,35.7
				c2.8,1.1,4.6,3.8,4.6,6.8v74.3c0,2.3-1.1,4.5-3,5.9C873.6,668.7,872.1,669.1,870.6,669.1z M693.6,626.4c0.6,0,1.1,0,1.6,0
				c54.8,0.2,111.2,8.8,168,25.6v-59.5C752.9,549,641,549,530.5,592.5v59.3C583.7,635,638.6,626.4,693.6,626.4z"/>
		</g>
		<g>
			<path fill="#460700" d="M523.2,594.9c-2.8,0-5.5-1.6-6.7-4.4c-1.7-3.8-41.3-94.5-41.3-154c0-29.8,18-58.8,50.7-81.9
				c29.5-20.8,68.4-34.8,106.5-38.3c53-4.9,70.7,3.3,87.7,11.1c7.2,3.3,14,6.4,23.7,8.6c11.6,2.6,29.4,3,48.3,3.5
				c37.7,0.9,73.3,1.8,84.4,18.4c4.2,6.3,7.3,12,10.3,17.6c7.4,13.8,13.7,25.6,34.7,42.5c16.1,13,26.5,37.5,28.6,67.3
				c2,28.4-4.2,57.4-16.4,77.7c-6.5,10.8-17.5,12.6-27.3,14.1c-10.8,1.8-21.1,3.4-30.2,15c-2.5,3.2-7.1,3.7-10.2,1.2
				c-3.2-2.5-3.7-7.1-1.2-10.2c12.7-16,28.1-18.5,39.3-20.3c9.3-1.5,14.2-2.5,17.1-7.3c10.7-17.8,16.1-43.6,14.3-69.1
				c-1.8-25.4-10.4-46.7-23.2-56.9c-23.3-18.7-31-33.1-38.4-47c-2.8-5.3-5.7-10.7-9.5-16.4c-6.9-10.3-44.9-11.2-72.6-11.9
				c-19.6-0.5-38.2-0.9-51.1-3.8c-11.2-2.5-19-6.1-26.6-9.6c-16-7.4-31.2-14.4-80.3-9.8c-35.7,3.3-71.9,16.3-99.4,35.7
				c-28.7,20.3-44.5,45.1-44.5,70c0,56.5,39.6,147.2,40,148.2c1.6,3.7-0.1,8-3.7,9.6C525.2,594.7,524.2,594.9,523.2,594.9z"/>
		</g>
		<g>
			<path fill="#460700" d="M782.8,568.3c-1.4,0-2.8-0.4-4-1.2c-3.4-2.2-4.3-6.8-2-10.1c36.6-55,16.7-136,16.5-136.8
				c-1-3.9,1.4-7.9,5.3-8.9c3.9-1,7.9,1.4,8.9,5.3c0.9,3.6,21.8,88-18.5,148.5C787.4,567.2,785.1,568.3,782.8,568.3z"/>
		</g>
		<g>
			<path fill="#460700" d="M596,571.6c-2.8,0-5.4-1.6-6.7-4.3c-22.6-50.3-16.8-115.2-16.6-117.9c0.4-4,3.9-7,7.9-6.6
				c4,0.4,7,3.9,6.6,7.9l0,0c-0.1,0.6-5.6,63.9,15.4,110.6c1.6,3.7,0,8-3.7,9.6C598.1,571.4,597,571.6,596,571.6z"/>
		</g>
		<g>
			<path fill="#460700" d="M667,560.8c-2.8,0-5.5-1.6-6.7-4.4c-10.4-23.6-8.9-55.7-8.9-57.1c0.2-4,3.6-7.1,7.6-6.9
				c4,0.2,7.1,3.6,6.9,7.6c0,0.5-1.3,30.1,7.6,50.5c1.6,3.7,0,8-3.7,9.6C669,560.6,668,560.8,667,560.8z"/>
		</g>
		<g>
			<path fill="#460700" d="M556.9,1085.2c-4,0-7.3-3.3-7.3-7.3V915.4c0-2.6,1.4-5,3.7-6.3c2.3-1.3,5-1.3,7.3,0
				c0.2,0.1,22.9,13.2,59.2,24.3c33.3,10.2,85.2,20.8,143.4,13.2c4-0.5,7.7,2.3,8.2,6.3c0.5,4-2.3,7.7-6.3,8.2
				c-61,7.9-115.2-3.2-150-13.9c-22.9-7-40.4-14.7-50.8-19.8v150.5C564.2,1082,560.9,1085.2,556.9,1085.2z"/>
		</g>
		<g>
			<path fill="#460700" d="M1018.8,1085.2H381.2c-4,0-7.3-3.3-7.3-7.3c0-43.8,11.2-83.9,33.4-119.2c17.7-28.1,42.2-53.1,73-74.4
				c52.1-36,103.5-48.6,105.7-49.2c2-0.5,4.1-0.1,5.8,1c1.7,1.1,2.8,2.9,3.1,4.9c0.1,0.5,8,50.4,32.4,68.4
				c28.1,20.7,33.9,36.2,34.5,37.9l-13.8,4.6l0,0.1c0-0.1-5-13-29.4-30.9c-22.8-16.8-33-53.5-36.6-69.8
				c-15.9,4.8-55.1,18.3-93.8,45.2c-64,44.4-97.5,102.9-99.6,174.1h622.7c-2.1-71.3-35.7-129.9-100-174.3
				c-38.7-26.7-77.6-40.1-93.4-44.9c-3.5,16.3-13.8,53-36.6,69.8c-24.3,17.9-29.3,30.8-29.4,30.9l0-0.1l-13.8-4.6
				c0.6-1.7,6.4-17.2,34.5-37.9c24.4-18,32.3-67.9,32.4-68.4c0.3-2,1.4-3.8,3.1-4.9c1.7-1.1,3.8-1.5,5.8-1
				c2.2,0.5,53.5,13.1,105.7,49.2c30.8,21.3,55.3,46.3,73,74.4c22.1,35.3,33.4,75.4,33.4,119.2
				C1026.1,1082,1022.8,1085.2,1018.8,1085.2z"/>
		</g>
		<g>
			
				<ellipse transform="matrix(0.923 -0.3848 0.3848 0.923 -334.4619 303.9244)" fill="#460700" cx="592.2" cy="987.8" rx="8.9" ry="8.9"/>
		</g>
		<g>
			<circle fill="#460700" cx="592.2" cy="1043.4" r="8.9"/>
		</g>
	</g>
	<g>
		<path fill="#460700" d="M505.5,1085.2c-4,0-7.3-3.3-7.3-7.3v-48.5c0-4,3.3-7.3,7.3-7.3c4,0,7.3,3.3,7.3,7.3v48.5
			C512.8,1082,509.5,1085.2,505.5,1085.2z"/>
	</g>
	<g>
		<path fill="#460700" d="M894.5,1085.2c-4,0-7.3-3.3-7.3-7.3v-48.5c0-4,3.3-7.3,7.3-7.3c4,0,7.3,3.3,7.3,7.3v48.5
			C901.8,1082,898.6,1085.2,894.5,1085.2z"/>
	</g>
</g>
</svg>
